<?xml version="1.0" encoding="UTF-8"?>
<svg xmlns="http://www.w3.org/2000/svg" xmlns:xlink="http://www.w3.org/1999/xlink" width="24px" height="24px" viewBox="0 0 24 24" version="1.1">
<g id="surface1">
<path style=" stroke:none;fill-rule:nonzero;fill:rgb(0%,0%,0%);fill-opacity:1;" d="M 0.757812 12.203125 L 0.679688 12.160156 C 0.5 12.0625 0.359375 11.910156 0.257812 11.71875 C 0.121094 11.460938 0.0625 11.222656 0.0625 10.96875 L 0.078125 10.84375 C 0.078125 10.640625 0.132812 10.457031 0.21875 10.289062 L 0.300781 10.140625 C 0.34375 10.058594 0.398438 9.988281 0.449219 9.917969 C 0.511719 9.847656 0.519531 9.757812 0.5 9.679688 L 0.449219 9.519531 C 0.390625 9.320312 0.351562 9.121094 0.351562 8.921875 L 0.320312 8.796875 C 0.320312 8.578125 0.378906 8.359375 0.519531 8.199219 L 0.617188 8.070312 C 0.6875 7.96875 0.800781 7.90625 0.917969 7.871094 C 1.023438 7.84375 1.09375 7.738281 1.101562 7.621094 L 1.121094 7.28125 C 1.121094 7.007812 1.25 6.757812 1.449219 6.582031 L 1.691406 6.398438 C 1.738281 6.351562 1.789062 6.300781 1.828125 6.21875 C 1.878906 6.160156 1.890625 6.078125 1.878906 6.019531 C 1.859375 5.921875 1.878906 5.890625 1.929688 5.878906 C 2.089844 5.9375 2.1875 5.921875 2.257812 5.839844 L 2.390625 5.671875 L 2.75 5.269531 C 2.851562 5.171875 2.890625 4.992188 2.832031 4.851562 L 2.710938 4.589844 C 2.691406 4.527344 2.710938 4.457031 2.761719 4.4375 C 2.890625 4.4375 2.980469 4.492188 3.019531 4.570312 L 3.0625 4.640625 C 3.121094 4.757812 3.257812 4.820312 3.359375 4.773438 C 3.582031 4.691406 3.757812 4.667969 3.929688 4.667969 L 4.25 4.667969 C 4.472656 4.667969 4.648438 4.519531 4.691406 4.289062 C 4.730469 4.007812 4.828125 3.792969 4.96875 3.640625 C 5.117188 3.46875 5.292969 3.34375 5.488281 3.238281 C 5.75 3.097656 5.910156 2.902344 5.957031 2.640625 C 6.027344 2.320312 6.203125 2.089844 6.429688 1.941406 L 7.191406 1.507812 L 7.410156 1.378906 C 7.542969 1.296875 7.660156 1.199219 7.757812 1.078125 L 7.960938 0.839844 C 8.058594 0.742188 8.160156 0.671875 8.277344 0.640625 C 8.382812 0.609375 8.523438 0.589844 8.640625 0.601562 L 9.042969 0.628906 C 9.238281 0.628906 9.398438 0.679688 9.558594 0.75 L 9.660156 0.800781 C 9.757812 0.839844 9.859375 0.820312 9.910156 0.75 L 10 0.699219 L 10.429688 0.25 C 10.527344 0.148438 10.648438 0.109375 10.78125 0.132812 C 10.90625 0.148438 11.039062 0.203125 11.160156 0.257812 C 11.339844 0.359375 11.488281 0.398438 11.65625 0.398438 L 11.761719 0.398438 C 11.980469 0.398438 12.203125 0.429688 12.421875 0.476562 L 12.570312 0.519531 C 12.722656 0.558594 12.871094 0.5 12.96875 0.378906 C 13 0.328125 13.070312 0.320312 13.109375 0.359375 C 13.140625 0.378906 13.148438 0.398438 13.15625 0.429688 C 13.179688 0.628906 13.296875 0.777344 13.457031 0.828125 L 13.621094 0.882812 C 13.789062 0.929688 13.941406 1.039062 14.039062 1.179688 C 14.140625 1.332031 14.257812 1.480469 14.398438 1.578125 L 14.5 1.679688 C 14.601562 1.78125 14.742188 1.820312 14.878906 1.808594 L 15.46875 1.808594 C 15.707031 1.808594 15.941406 1.851562 16.171875 1.949219 C 16.390625 2.046875 16.621094 2.070312 16.828125 1.992188 C 17.046875 1.921875 17.277344 1.890625 17.507812 1.921875 L 17.9375 1.992188 C 18.140625 2.011719 18.34375 2.109375 18.460938 2.257812 L 18.511719 2.3125 C 18.609375 2.410156 18.707031 2.539062 18.8125 2.679688 C 18.871094 2.808594 19.007812 2.878906 19.148438 2.878906 L 19.773438 2.878906 C 19.921875 2.878906 20.070312 2.910156 20.1875 2.980469 C 20.320312 3.078125 20.429688 3.179688 20.53125 3.28125 L 20.628906 3.40625 C 20.75 3.546875 20.808594 3.742188 20.796875 3.941406 C 20.796875 4.101562 20.921875 4.242188 21.078125 4.242188 L 21.28125 4.261719 C 21.421875 4.261719 21.539062 4.359375 21.609375 4.492188 L 21.707031 4.691406 L 21.96875 5.269531 C 22.007812 5.371094 22.023438 5.46875 22.007812 5.550781 C 22.007812 5.648438 22.039062 5.726562 22.109375 5.769531 L 22.210938 5.839844 C 22.339844 5.9375 22.410156 6.089844 22.390625 6.257812 L 22.320312 6.730469 L 22.296875 6.929688 C 22.28125 7.03125 22.332031 7.15625 22.421875 7.226562 C 22.570312 7.332031 22.640625 7.457031 22.648438 7.609375 L 22.648438 7.808594 C 22.648438 7.90625 22.632812 8.03125 22.550781 8.109375 C 22.492188 8.1875 22.449219 8.292969 22.449219 8.410156 L 22.480469 8.640625 C 22.480469 8.796875 22.578125 8.9375 22.679688 9.042969 C 22.820312 9.140625 22.898438 9.300781 22.921875 9.460938 C 22.960938 9.707031 22.96875 9.910156 22.96875 10.109375 L 22.96875 10.339844 C 22.96875 10.421875 22.96875 10.5 23 10.578125 C 23.019531 10.648438 23.070312 10.71875 23.128906 10.757812 L 23.328125 10.90625 C 23.53125 11.039062 23.671875 11.207031 23.75 11.441406 C 23.851562 11.65625 23.878906 11.890625 23.878906 12.121094 L 23.878906 12.203125 C 23.878906 12.378906 23.859375 12.570312 23.796875 12.742188 C 23.75 12.917969 23.761719 13.09375 23.832031 13.242188 C 23.910156 13.378906 23.957031 13.542969 23.980469 13.710938 C 24.019531 13.90625 24 14.109375 23.929688 14.269531 L 23.910156 14.339844 C 23.859375 14.460938 23.78125 14.570312 23.679688 14.65625 C 23.578125 14.761719 23.480469 14.820312 23.417969 14.890625 C 23.359375 14.949219 23.320312 15.050781 23.347656 15.140625 L 23.382812 15.28125 C 23.429688 15.476562 23.429688 15.679688 23.382812 15.859375 L 23.382812 15.941406 C 23.339844 16.09375 23.277344 16.21875 23.222656 16.339844 C 23.152344 16.472656 23.046875 16.570312 22.921875 16.640625 L 22.773438 16.738281 C 22.703125 16.78125 22.648438 16.871094 22.648438 16.960938 C 22.648438 17.058594 22.609375 17.160156 22.550781 17.222656 L 22.402344 17.417969 C 22.296875 17.550781 22.171875 17.65625 22.03125 17.71875 C 21.890625 17.820312 21.769531 17.921875 21.679688 18.019531 C 21.582031 18.140625 21.5 18.28125 21.460938 18.421875 C 21.421875 18.601562 21.28125 18.699219 21.132812 18.699219 L 20.59375 18.699219 C 20.453125 18.699219 20.320312 18.800781 20.257812 18.917969 C 20.1875 19.078125 20.117188 19.191406 20.03125 19.289062 C 19.929688 19.390625 19.871094 19.507812 19.828125 19.648438 C 19.808594 19.773438 19.710938 19.851562 19.609375 19.808594 C 19.480469 19.75 19.351562 19.808594 19.289062 19.90625 C 19.171875 20.109375 19.050781 20.257812 18.917969 20.390625 L 18.847656 20.453125 C 18.722656 20.550781 18.546875 20.628906 18.398438 20.628906 C 18.21875 20.628906 18.132812 20.710938 18.097656 20.832031 C 18.070312 20.929688 18.050781 21.0625 18.042969 21.167969 C 18.019531 21.289062 17.980469 21.398438 17.9375 21.5 L 17.890625 21.558594 C 17.789062 21.707031 17.710938 21.859375 17.609375 21.988281 L 17.570312 22.050781 C 17.441406 22.21875 17.269531 22.351562 17.070312 22.402344 C 16.828125 22.480469 16.621094 22.5 16.410156 22.5 L 16.269531 22.5 C 16.171875 22.5 16.070312 22.5625 16 22.660156 L 15.941406 22.757812 L 15.882812 22.878906 L 15.75 23.101562 C 15.652344 23.277344 15.5 23.398438 15.300781 23.460938 C 15.097656 23.507812 14.867188 23.53125 14.65625 23.523438 L 14.5 23.5 C 14.359375 23.5 14.230469 23.460938 14.101562 23.398438 C 14 23.359375 13.859375 23.398438 13.800781 23.5 C 13.703125 23.640625 13.578125 23.71875 13.449219 23.761719 L 13.148438 23.859375 C 12.953125 23.910156 12.730469 23.910156 12.519531 23.859375 L 12.359375 23.808594 C 12.257812 23.808594 12.160156 23.761719 12.078125 23.710938 C 11.980469 23.65625 11.878906 23.640625 11.78125 23.648438 L 11.648438 23.671875 C 11.453125 23.691406 11.269531 23.671875 11.089844 23.621094 L 10.820312 23.558594 C 10.703125 23.523438 10.589844 23.441406 10.519531 23.328125 C 10.472656 23.230469 10.359375 23.152344 10.21875 23.128906 L 9.898438 23.128906 C 9.699219 23.101562 9.519531 23.03125 9.398438 22.878906 L 9 22.5 L 8.859375 22.378906 L 8.640625 22.21875 L 8.507812 22.121094 C 8.359375 22.023438 8.179688 21.941406 7.992188 21.917969 L 7.390625 21.820312 C 7.332031 21.820312 7.289062 21.800781 7.226562 21.792969 L 7 21.742188 C 6.898438 21.722656 6.800781 21.640625 6.730469 21.539062 C 6.671875 21.441406 6.558594 21.398438 6.460938 21.441406 C 6.257812 21.519531 6.097656 21.539062 5.9375 21.570312 L 5.796875 21.570312 C 5.539062 21.589844 5.300781 21.546875 5.058594 21.441406 C 4.820312 21.34375 4.660156 21.191406 4.507812 21 C 4.390625 20.832031 4.210938 20.699219 3.988281 20.65625 L 3.707031 20.601562 C 3.511719 20.558594 3.308594 20.480469 3.132812 20.359375 C 2.929688 20.222656 2.832031 20.089844 2.75 19.929688 C 2.671875 19.78125 2.621094 19.609375 2.609375 19.429688 L 2.609375 19.351562 C 2.59375 19.148438 2.453125 18.96875 2.257812 18.917969 C 2.03125 18.847656 1.859375 18.75 1.710938 18.617188 C 1.570312 18.492188 1.492188 18.300781 1.492188 18.097656 L 1.507812 17.65625 C 1.507812 17.488281 1.457031 17.339844 1.339844 17.230469 C 1.21875 17.109375 1.140625 16.960938 1.140625 16.800781 L 1.109375 16.4375 C 1.09375 16.179688 1.039062 15.917969 0.980469 15.660156 C 0.917969 15.429688 1.007812 15.203125 1.199219 15.089844 L 1.269531 15.042969 C 1.367188 14.972656 1.410156 14.839844 1.351562 14.71875 L 1.269531 14.621094 C 1.171875 14.523438 1.070312 14.453125 0.96875 14.417969 C 0.890625 14.398438 0.871094 14.320312 0.871094 14.269531 L 0.96875 14.152344 C 1.03125 14.082031 1.023438 13.96875 0.96875 13.90625 C 0.890625 13.828125 0.847656 13.730469 0.839844 13.632812 L 0.820312 12.929688 C 0.820312 12.792969 0.839844 12.652344 0.882812 12.511719 C 0.917969 12.390625 0.882812 12.25 0.757812 12.191406 Z M 10.660156 10.878906 C 10.730469 10.808594 10.71875 10.679688 10.660156 10.632812 C 10.5625 10.550781 10.492188 10.457031 10.429688 10.359375 L 10.332031 10.199219 C 10.261719 10.070312 10.171875 9.960938 10.070312 9.859375 L 10.050781 9.839844 C 9.953125 9.757812 9.882812 9.660156 9.820312 9.539062 C 9.769531 9.441406 9.769531 9.34375 9.820312 9.238281 L 9.882812 9.140625 C 9.941406 9.042969 9.980469 8.902344 9.980469 8.78125 L 9.980469 8.742188 C 9.980469 8.640625 9.941406 8.539062 9.882812 8.441406 C 9.839844 8.359375 9.800781 8.257812 9.777344 8.160156 L 9.777344 8.101562 C 9.75 7.976562 9.777344 7.851562 9.859375 7.75 C 9.941406 7.621094 10 7.5 10.03125 7.351562 L 10.03125 7.332031 C 10.070312 7.226562 10.050781 7.101562 9.988281 7 C 9.929688 6.898438 9.910156 6.800781 9.953125 6.679688 L 10.023438 6.476562 C 10.078125 6.300781 10.171875 6.140625 10.289062 6 L 10.429688 5.851562 L 10.527344 5.726562 L 10.589844 5.671875 C 10.648438 5.609375 10.660156 5.507812 10.609375 5.429688 C 10.5625 5.328125 10.527344 5.230469 10.550781 5.128906 L 10.570312 4.992188 C 10.597656 4.789062 10.667969 4.589844 10.800781 4.429688 L 10.84375 4.390625 C 10.992188 4.191406 11.179688 4.058594 11.398438 3.988281 L 11.671875 3.890625 C 11.789062 3.847656 11.867188 3.722656 11.867188 3.589844 C 11.867188 3.429688 11.921875 3.289062 12.007812 3.160156 L 12.0625 3.109375 C 12.160156 2.9375 12.28125 2.769531 12.359375 2.59375 L 12.429688 2.460938 C 12.449219 2.429688 12.460938 2.390625 12.460938 2.359375 C 12.460938 2.1875 12.359375 2.039062 12.203125 2.03125 L 11.761719 2 C 11.507812 1.976562 11.257812 2 11.019531 2 L 10.171875 2.101562 C 10.039062 2.101562 9.941406 2.199219 9.929688 2.339844 C 9.929688 2.480469 9.828125 2.601562 9.707031 2.640625 L 9.351562 2.742188 L 9.25 2.769531 L 8.949219 2.867188 C 8.726562 2.9375 8.550781 3.097656 8.453125 3.320312 L 8.371094 3.449219 C 8.269531 3.671875 8.101562 3.847656 7.890625 3.980469 C 7.691406 4.109375 7.589844 4.320312 7.570312 4.5625 L 7.570312 4.660156 C 7.550781 4.859375 7.492188 5.058594 7.367188 5.199219 L 7.320312 5.277344 C 7.242188 5.382812 7.21875 5.507812 7.269531 5.621094 C 7.320312 5.742188 7.351562 5.867188 7.339844 6 L 7.339844 6.53125 C 7.339844 6.671875 7.242188 6.792969 7.140625 6.828125 C 7 6.882812 6.910156 6.988281 6.871094 7.128906 L 6.820312 7.332031 C 6.777344 7.527344 6.847656 7.730469 7.023438 7.851562 C 7.179688 7.96875 7.28125 8.152344 7.320312 8.371094 L 7.320312 8.550781 C 7.351562 8.75 7.457031 8.949219 7.640625 9.050781 C 7.820312 9.167969 7.960938 9.351562 8.039062 9.546875 L 8.089844 9.707031 C 8.171875 9.929688 8.347656 10.058594 8.550781 10.078125 L 8.609375 10.078125 C 8.789062 10.078125 8.949219 10.179688 9.050781 10.339844 C 9.148438 10.5 9.308594 10.609375 9.492188 10.640625 L 9.769531 10.71875 C 9.941406 10.773438 10.101562 10.859375 10.226562 10.992188 L 10.25 11.011719 C 10.351562 11.089844 10.507812 11.082031 10.597656 10.96875 L 10.667969 10.890625 Z M 11.796875 9.960938 C 11.902344 10.023438 12 9.988281 12.042969 9.898438 L 12.070312 9.847656 C 12.140625 9.707031 12.230469 9.570312 12.328125 9.449219 L 12.53125 9.148438 C 12.558594 9.148438 12.570312 9.132812 12.582031 9.109375 L 12.820312 8.789062 C 12.917969 8.691406 13.039062 8.621094 13.179688 8.621094 C 13.308594 8.621094 13.421875 8.550781 13.480469 8.417969 C 13.519531 8.277344 13.578125 8.152344 13.703125 8.039062 L 13.75 7.976562 C 13.851562 7.878906 13.949219 7.828125 14.046875 7.78125 C 14.179688 7.757812 14.300781 7.738281 14.417969 7.738281 L 14.71875 7.738281 C 14.839844 7.738281 14.9375 7.691406 15 7.589844 C 15.0625 7.492188 15.148438 7.421875 15.25 7.367188 L 15.351562 7.332031 C 15.511719 7.261719 15.6875 7.210938 15.871094 7.191406 L 16.070312 7.171875 C 16.191406 7.171875 16.320312 7.171875 16.4375 7.242188 C 16.542969 7.308594 16.667969 7.296875 16.773438 7.21875 L 16.84375 7.179688 C 16.992188 7.078125 17.160156 7 17.339844 6.980469 L 17.359375 6.980469 C 17.558594 6.941406 17.742188 6.941406 17.9375 6.953125 L 18.042969 6.953125 C 18.238281 6.980469 18.40625 7.050781 18.539062 7.199219 L 18.570312 7.242188 C 18.671875 7.339844 18.828125 7.421875 18.96875 7.421875 L 19.140625 7.421875 C 19.191406 7.421875 19.242188 7.402344 19.269531 7.351562 C 19.296875 7.320312 19.351562 7.289062 19.402344 7.289062 L 19.5 7.289062 C 19.640625 7.289062 19.773438 7.332031 19.898438 7.367188 L 20.070312 7.4375 C 20.230469 7.492188 20.398438 7.542969 20.570312 7.5625 L 20.691406 7.5625 C 20.769531 7.5625 20.820312 7.507812 20.820312 7.4375 C 20.820312 7.339844 20.796875 7.242188 20.75 7.15625 L 20.679688 7 C 20.601562 6.871094 20.539062 6.730469 20.480469 6.601562 L 20.460938 6.546875 C 20.410156 6.449219 20.410156 6.351562 20.460938 6.25 L 20.460938 6.203125 C 20.480469 6.121094 20.441406 6.027344 20.359375 6 L 20.277344 6 C 20.117188 5.949219 19.976562 5.859375 19.878906 5.726562 L 19.78125 5.628906 C 19.679688 5.53125 19.621094 5.382812 19.578125 5.230469 C 19.527344 5.101562 19.421875 5 19.28125 5 L 18.859375 5 C 18.707031 4.976562 18.582031 4.898438 18.492188 4.78125 L 18.449219 4.730469 C 18.378906 4.632812 18.320312 4.507812 18.28125 4.390625 C 18.230469 4.289062 18.121094 4.226562 18.019531 4.261719 L 17.902344 4.296875 C 17.699219 4.367188 17.5 4.402344 17.300781 4.378906 L 17.140625 4.359375 C 16.96875 4.359375 16.808594 4.289062 16.679688 4.191406 L 16.578125 4.121094 C 16.5 4.058594 16.421875 4.023438 16.332031 3.980469 C 16.226562 3.941406 16.148438 3.960938 16.09375 4.03125 L 16.039062 4.09375 C 15.941406 4.191406 15.800781 4.269531 15.660156 4.289062 L 15.121094 4.320312 C 15.019531 4.320312 14.921875 4.367188 14.851562 4.4375 C 14.769531 4.507812 14.679688 4.5625 14.578125 4.578125 L 14.558594 4.578125 C 14.460938 4.578125 14.359375 4.648438 14.257812 4.71875 L 14.257812 4.738281 C 14.160156 4.84375 14.03125 4.890625 13.898438 4.890625 L 13.859375 4.90625 C 13.738281 4.90625 13.621094 4.90625 13.5 4.941406 L 13.378906 4.941406 C 13.210938 4.96875 13.078125 5.109375 13.039062 5.292969 L 13 5.523438 C 12.96875 5.679688 12.898438 5.820312 12.800781 5.949219 C 12.699219 6.070312 12.582031 6.148438 12.429688 6.148438 L 12.257812 6.148438 C 12.160156 6.167969 12.0625 6.28125 12.078125 6.398438 C 12.097656 6.570312 12.078125 6.722656 12.050781 6.871094 L 12.007812 7.039062 C 11.972656 7.191406 11.867188 7.308594 11.742188 7.359375 L 11.679688 7.390625 L 11.65625 7.390625 C 11.601562 7.429688 11.558594 7.519531 11.609375 7.589844 C 11.671875 7.691406 11.691406 7.789062 11.679688 7.890625 L 11.648438 8.207031 C 11.648438 8.328125 11.601562 8.441406 11.550781 8.539062 C 11.488281 8.640625 11.488281 8.742188 11.53125 8.839844 L 11.628906 9.0625 C 11.679688 9.160156 11.691406 9.257812 11.65625 9.378906 C 11.628906 9.476562 11.609375 9.582031 11.621094 9.679688 C 11.621094 9.777344 11.679688 9.882812 11.761719 9.917969 L 11.78125 9.941406 Z M 19.703125 17.1875 C 19.800781 17.292969 19.949219 17.328125 20.070312 17.25 L 20.269531 17.117188 C 20.371094 17.046875 20.453125 16.949219 20.488281 16.820312 L 20.488281 16.800781 L 20.59375 16.5 L 20.648438 16.402344 L 20.691406 16.296875 L 20.726562 16.226562 C 20.769531 16.148438 20.832031 16.09375 20.929688 16.058594 L 20.972656 16.039062 C 21.050781 16.023438 21.097656 15.941406 21.097656 15.859375 C 21.097656 15.757812 21.148438 15.679688 21.203125 15.609375 L 21.28125 15.539062 L 21.476562 15.28125 L 21.476562 15.257812 C 21.539062 15.179688 21.582031 15.089844 21.601562 14.992188 C 21.617188 14.890625 21.601562 14.789062 21.558594 14.691406 L 21.539062 14.648438 C 21.5 14.550781 21.476562 14.480469 21.46875 14.390625 L 21.441406 14.109375 L 21.40625 13.808594 C 21.40625 13.710938 21.449219 13.609375 21.511719 13.507812 C 21.582031 13.429688 21.628906 13.332031 21.671875 13.226562 L 21.671875 13.191406 L 21.6875 13.171875 C 21.707031 13.070312 21.660156 12.96875 21.570312 12.96875 C 21.46875 12.917969 21.371094 12.839844 21.34375 12.722656 L 21.308594 12.660156 C 21.257812 12.476562 21.230469 12.300781 21.230469 12.121094 L 21.25 11.621094 L 21.25 11.59375 C 21.25 11.417969 21.109375 11.292969 20.949219 11.292969 L 20.929688 11.292969 C 20.726562 11.292969 20.570312 11.230469 20.429688 11.089844 L 20.347656 10.992188 L 20.152344 10.757812 L 19.890625 10.457031 C 19.789062 10.320312 19.691406 10.199219 19.5625 10.078125 C 19.457031 9.980469 19.308594 9.882812 19.15625 9.859375 L 18.960938 9.828125 C 18.859375 9.8125 18.730469 9.757812 18.617188 9.6875 C 18.539062 9.628906 18.421875 9.652344 18.34375 9.730469 L 18.210938 9.871094 L 18.148438 9.910156 C 18.078125 9.929688 18.007812 9.890625 17.980469 9.8125 C 17.9375 9.6875 17.9375 9.546875 18 9.429688 L 18 9.371094 C 18 9.300781 17.9375 9.25 17.878906 9.273438 L 17.71875 9.273438 C 17.539062 9.273438 17.359375 9.25 17.1875 9.167969 L 17.089844 9.132812 C 16.992188 9.078125 16.871094 9.050781 16.757812 9.050781 C 16.660156 9.050781 16.5625 9.070312 16.457031 9.132812 L 16.421875 9.160156 C 16.296875 9.238281 16.15625 9.28125 16.023438 9.289062 L 15.6875 9.289062 C 15.539062 9.289062 15.390625 9.34375 15.289062 9.421875 C 15.160156 9.5 15.019531 9.546875 14.867188 9.582031 L 14.601562 9.617188 C 14.480469 9.652344 14.347656 9.699219 14.242188 9.792969 C 14.140625 9.890625 14 9.953125 13.871094 9.988281 L 13.820312 10.007812 C 13.660156 10.058594 13.519531 10.15625 13.421875 10.308594 L 13.296875 10.429688 C 13.226562 10.527344 13.226562 10.648438 13.296875 10.75 C 13.359375 10.851562 13.480469 10.878906 13.597656 10.851562 L 13.75 10.789062 C 13.828125 10.757812 13.921875 10.789062 13.992188 10.828125 C 14.046875 10.878906 14.140625 10.90625 14.230469 10.898438 L 14.480469 10.871094 C 14.621094 10.871094 14.761719 10.871094 14.902344 10.90625 C 15.050781 10.960938 15.179688 11.011719 15.300781 11.109375 C 15.421875 11.207031 15.546875 11.25 15.699219 11.269531 C 15.847656 11.292969 16 11.320312 16.140625 11.371094 L 16.242188 11.390625 C 16.339844 11.417969 16.421875 11.488281 16.480469 11.59375 C 16.527344 11.671875 16.578125 11.789062 16.578125 11.890625 L 16.578125 11.921875 C 16.578125 12.042969 16.679688 12.121094 16.78125 12.121094 L 16.84375 12.121094 C 17 12.121094 17.171875 12.140625 17.339844 12.191406 L 17.410156 12.21875 C 17.507812 12.257812 17.609375 12.320312 17.679688 12.421875 C 17.761719 12.519531 17.808594 12.617188 17.839844 12.722656 L 17.867188 12.859375 C 17.902344 13.007812 17.910156 13.15625 17.910156 13.320312 L 17.910156 13.367188 C 17.910156 13.472656 17.980469 13.570312 18.089844 13.609375 C 18.191406 13.632812 18.308594 13.667969 18.421875 13.730469 L 18.46875 13.75 C 18.601562 13.828125 18.730469 13.929688 18.828125 14.046875 L 18.882812 14.117188 C 19.007812 14.269531 19.078125 14.460938 19.078125 14.648438 L 19.078125 14.71875 C 19.078125 14.867188 19.050781 15.019531 19 15.160156 C 18.960938 15.28125 19 15.421875 19.128906 15.460938 L 19.199219 15.511719 C 19.351562 15.570312 19.480469 15.679688 19.578125 15.8125 C 19.679688 15.960938 19.71875 16.128906 19.71875 16.308594 L 19.71875 16.609375 C 19.703125 16.710938 19.667969 16.789062 19.621094 16.859375 C 19.570312 16.929688 19.570312 17.03125 19.621094 17.101562 L 19.679688 17.199219 Z M 13.296875 12.070312 L 13.28125 12.070312 C 13.242188 12.070312 13.21875 12.121094 13.226562 12.167969 L 13.269531 12.371094 C 13.308594 12.53125 13.332031 12.6875 13.351562 12.847656 C 13.367188 13.007812 13.449219 13.148438 13.570312 13.25 L 13.609375 13.25 C 13.757812 13.367188 13.851562 13.550781 13.859375 13.730469 L 13.859375 14.230469 C 13.84375 14.328125 13.859375 14.429688 13.921875 14.507812 L 13.96875 14.558594 C 14.070312 14.679688 14.109375 14.820312 14.117188 14.957031 L 14.152344 15.511719 C 14.152344 15.640625 14.070312 15.75 13.949219 15.769531 L 13.851562 15.792969 C 13.78125 15.792969 13.75 15.871094 13.75 15.941406 C 13.75 16.023438 13.78125 16.109375 13.808594 16.191406 L 13.808594 16.210938 C 13.84375 16.308594 13.851562 16.410156 13.84375 16.507812 L 13.800781 16.78125 C 13.757812 16.976562 13.703125 17.160156 13.597656 17.339844 L 13.527344 17.460938 C 13.480469 17.558594 13.410156 17.621094 13.332031 17.65625 C 13.226562 17.699219 13.15625 17.78125 13.128906 17.878906 L 13.050781 18.238281 C 13 18.441406 12.910156 18.640625 12.792969 18.839844 L 12.769531 18.839844 C 12.652344 19 12.5 19.140625 12.320312 19.242188 L 12.203125 19.320312 L 11.902344 19.472656 C 11.796875 19.507812 11.742188 19.597656 11.71875 19.710938 L 11.671875 20.039062 C 11.640625 20.242188 11.570312 20.410156 11.429688 20.539062 L 11.300781 20.691406 L 11.152344 20.839844 L 11 21 C 10.878906 21.140625 10.703125 21.203125 10.5 21.167969 L 10.140625 21.097656 L 9.8125 21.0625 L 9.722656 21.0625 C 9.679688 21.097656 9.671875 21.160156 9.699219 21.21875 C 9.769531 21.34375 9.882812 21.421875 10 21.421875 L 10.21875 21.460938 C 10.320312 21.460938 10.4375 21.511719 10.542969 21.558594 C 10.640625 21.628906 10.738281 21.679688 10.859375 21.707031 L 10.878906 21.707031 C 11.011719 21.757812 11.152344 21.769531 11.277344 21.757812 L 11.429688 21.742188 C 11.601562 21.722656 11.761719 21.742188 11.902344 21.800781 L 12.019531 21.839844 C 12.070312 21.859375 12.148438 21.839844 12.203125 21.792969 C 12.257812 21.730469 12.320312 21.6875 12.398438 21.660156 L 12.476562 21.640625 C 12.609375 21.601562 12.742188 21.582031 12.882812 21.582031 L 12.960938 21.582031 C 13.078125 21.582031 13.191406 21.601562 13.289062 21.660156 L 13.332031 21.679688 C 13.402344 21.707031 13.480469 21.679688 13.527344 21.617188 C 13.5625 21.546875 13.632812 21.476562 13.703125 21.421875 L 13.949219 21.25 L 14.109375 21.148438 L 14.1875 21.097656 C 14.292969 21.027344 14.429688 21 14.550781 21 L 14.910156 20.972656 C 15.050781 20.949219 15.167969 20.851562 15.210938 20.710938 C 15.25 20.558594 15.308594 20.410156 15.40625 20.277344 C 15.511719 20.152344 15.609375 20.039062 15.707031 19.941406 C 15.839844 19.84375 15.96875 19.789062 16.109375 19.78125 L 16.191406 19.78125 C 16.351562 19.75 16.472656 19.597656 16.457031 19.4375 L 16.457031 18.769531 C 16.480469 18.671875 16.519531 18.539062 16.578125 18.441406 L 16.78125 18.140625 L 16.859375 18.042969 C 16.921875 17.992188 16.960938 17.921875 17.03125 17.839844 L 17.128906 17.710938 C 17.1875 17.609375 17.1875 17.480469 17.109375 17.390625 C 17.011719 17.292969 16.960938 17.152344 16.941406 17.011719 L 16.941406 16.96875 C 16.921875 16.808594 16.921875 16.640625 16.96875 16.472656 L 16.96875 16.421875 C 17.019531 16.289062 17.089844 16.15625 17.171875 16.039062 C 17.25 15.941406 17.242188 15.800781 17.140625 15.722656 L 16.96875 15.570312 C 16.828125 15.449219 16.75 15.273438 16.730469 15.089844 L 16.710938 14.890625 C 16.710938 14.832031 16.710938 14.761719 16.691406 14.691406 L 16.667969 14.539062 C 16.648438 14.371094 16.550781 14.242188 16.410156 14.140625 L 16.339844 14.117188 C 16.242188 14.058594 16.140625 13.96875 16.058594 13.851562 C 15.980469 13.75 15.941406 13.609375 15.910156 13.472656 L 15.882812 13.296875 C 15.882812 13.242188 15.839844 13.199219 15.777344 13.171875 L 15.617188 13.121094 L 15.300781 13.023438 C 15.203125 13 15.097656 12.917969 15.027344 12.847656 L 15.007812 12.847656 C 14.949219 12.769531 14.851562 12.769531 14.789062 12.828125 L 14.691406 12.929688 C 14.671875 12.960938 14.648438 12.96875 14.621094 12.960938 C 14.558594 12.960938 14.523438 12.910156 14.539062 12.859375 C 14.558594 12.699219 14.5 12.539062 14.371094 12.441406 L 14.242188 12.34375 L 13.941406 12.140625 C 13.859375 12.109375 13.738281 12.140625 13.703125 12.238281 L 13.660156 12.300781 C 13.660156 12.320312 13.632812 12.328125 13.621094 12.34375 C 13.578125 12.34375 13.519531 12.34375 13.519531 12.289062 L 13.492188 12.238281 C 13.457031 12.179688 13.390625 12.140625 13.332031 12.121094 Z M 12.097656 13.070312 L 12.050781 13.023438 C 12 12.980469 11.949219 12.988281 11.902344 13.039062 C 11.832031 13.15625 11.769531 13.289062 11.742188 13.421875 L 11.742188 13.4375 C 11.710938 13.570312 11.59375 13.660156 11.46875 13.640625 L 11.347656 13.640625 C 11.207031 13.640625 11.101562 13.757812 11.101562 13.898438 C 11.101562 14.082031 11.039062 14.257812 10.929688 14.398438 L 10.871094 14.460938 C 10.773438 14.59375 10.621094 14.679688 10.472656 14.726562 L 10.390625 14.75 C 10.289062 14.78125 10.210938 14.851562 10.191406 14.972656 C 10.191406 15.070312 10.128906 15.167969 10.050781 15.25 L 9.953125 15.328125 C 9.828125 15.460938 9.652344 15.53125 9.46875 15.546875 L 8.972656 15.601562 C 8.808594 15.601562 8.671875 15.699219 8.570312 15.847656 C 8.46875 16 8.320312 16.101562 8.171875 16.121094 L 7.949219 16.140625 C 7.789062 16.15625 7.621094 16.15625 7.449219 16.121094 L 7.351562 16.101562 L 7.078125 16.03125 C 6.980469 16 6.898438 16.03125 6.839844 16.101562 L 6.742188 16.226562 C 6.609375 16.378906 6.421875 16.449219 6.238281 16.429688 L 5.59375 16.351562 C 5.488281 16.351562 5.410156 16.296875 5.320312 16.25 C 5.222656 16.191406 5.152344 16.121094 5.082031 16.050781 L 4.828125 15.75 C 4.800781 15.730469 4.75 15.722656 4.703125 15.730469 L 4.5625 15.792969 L 4 15.929688 C 3.898438 15.960938 3.769531 15.929688 3.671875 15.871094 C 3.570312 15.792969 3.449219 15.769531 3.328125 15.769531 L 3.203125 15.769531 C 3.078125 15.800781 3 15.929688 3.042969 16.050781 L 3.078125 16.25 C 3.109375 16.351562 3.097656 16.472656 3.050781 16.570312 C 3 16.667969 3.007812 16.773438 3.078125 16.871094 L 3.140625 16.949219 C 3.21875 17.070312 3.34375 17.171875 3.441406 17.269531 C 3.539062 17.371094 3.640625 17.46875 3.722656 17.601562 L 3.871094 17.867188 C 3.953125 18.007812 4.070312 18.089844 4.226562 18.089844 C 4.378906 18.089844 4.527344 18.140625 4.648438 18.238281 L 4.949219 18.519531 C 5.03125 18.589844 5.152344 18.601562 5.230469 18.539062 L 5.277344 18.519531 C 5.339844 18.519531 5.382812 18.558594 5.382812 18.617188 L 5.382812 18.671875 C 5.382812 18.800781 5.480469 18.917969 5.609375 18.96875 L 6.0625 19.070312 C 6.21875 19.121094 6.378906 19.171875 6.53125 19.269531 L 6.609375 19.269531 C 6.6875 19.269531 6.757812 19.199219 6.75 19.109375 L 6.75 18.757812 C 6.75 18.660156 6.792969 18.558594 6.871094 18.519531 L 6.917969 18.5 C 6.96875 18.519531 7.023438 18.558594 7 18.601562 L 7 18.769531 C 7 18.898438 7.039062 19.023438 7.128906 19.109375 C 7.226562 19.210938 7.359375 19.226562 7.472656 19.191406 C 7.589844 19.140625 7.710938 19.128906 7.84375 19.140625 L 8.207031 19.15625 C 8.390625 19.179688 8.558594 19.15625 8.710938 19.09375 C 8.890625 19.03125 9.042969 18.953125 9.179688 18.839844 L 9.238281 18.800781 L 9.539062 18.53125 C 9.640625 18.429688 9.769531 18.378906 9.890625 18.378906 L 10.289062 18.378906 C 10.492188 18.359375 10.667969 18.179688 10.691406 17.980469 L 10.730469 17.78125 C 10.730469 17.648438 10.789062 17.53125 10.878906 17.429688 C 10.976562 17.328125 11.082031 17.269531 11.179688 17.230469 L 11.300781 17.179688 C 11.46875 17.109375 11.601562 16.960938 11.65625 16.78125 L 11.71875 16.542969 C 11.769531 16.339844 11.867188 16.140625 12.019531 16.007812 L 12.042969 15.988281 C 12.160156 15.890625 12.179688 15.6875 12.097656 15.546875 L 12.070312 15.476562 C 12 15.378906 11.992188 15.230469 12.042969 15.097656 C 12.089844 14.957031 12.140625 14.839844 12.21875 14.71875 L 12.320312 14.578125 C 12.359375 14.5 12.359375 14.382812 12.300781 14.3125 C 12.238281 14.230469 12.203125 14.128906 12.203125 14.03125 L 12.179688 13.890625 L 12.179688 13.550781 C 12.203125 13.449219 12.179688 13.320312 12.148438 13.21875 L 12.109375 13.101562 Z M 10.667969 12.308594 L 10.667969 12.28125 C 10.667969 12.179688 10.609375 12.121094 10.527344 12.121094 L 10.269531 12.121094 C 10.171875 12.140625 10.070312 12.140625 9.988281 12.121094 L 9.539062 12.121094 C 9.308594 12.121094 9.089844 12.078125 8.867188 12.019531 L 8.628906 11.957031 L 8.429688 11.902344 L 7.976562 11.75 C 7.738281 11.679688 7.5625 11.523438 7.449219 11.300781 L 7.402344 11.199219 C 7.332031 11.046875 7.179688 10.96875 7.03125 11 C 6.859375 11 6.6875 11 6.53125 10.921875 L 6.40625 10.871094 C 6.179688 10.773438 6.007812 10.570312 6.007812 10.296875 L 5.972656 10.03125 C 5.9375 9.890625 5.851562 9.757812 5.726562 9.707031 C 5.59375 9.652344 5.460938 9.570312 5.328125 9.476562 L 5.277344 9.449219 C 5.128906 9.328125 5 9.167969 4.929688 8.980469 L 4.90625 8.921875 C 4.859375 8.761719 4.851562 8.59375 4.890625 8.417969 L 4.90625 8.359375 C 4.949219 8.230469 4.960938 8.101562 4.960938 7.960938 C 4.960938 7.84375 4.90625 7.71875 4.820312 7.632812 L 4.679688 7.5 C 4.519531 7.367188 4.421875 7.179688 4.410156 6.96875 C 4.390625 6.75 4.390625 6.539062 4.429688 6.328125 L 4.429688 6.273438 C 4.429688 6.148438 4.332031 6.070312 4.226562 6.070312 L 4.199219 6.070312 C 4.070312 6.070312 3.960938 6.148438 3.898438 6.273438 C 3.847656 6.40625 3.769531 6.519531 3.679688 6.628906 L 3.640625 6.679688 L 3.34375 6.980469 C 3.238281 7.078125 3.179688 7.226562 3.160156 7.378906 C 3.140625 7.527344 3.097656 7.679688 3.042969 7.820312 L 3.019531 7.871094 C 2.972656 7.992188 2.890625 8.101562 2.789062 8.171875 C 2.691406 8.25 2.621094 8.371094 2.621094 8.488281 L 2.601562 8.949219 C 2.601562 9.148438 2.570312 9.351562 2.5 9.546875 L 2.480469 9.628906 C 2.429688 9.757812 2.480469 9.898438 2.601562 9.960938 L 3.019531 10.140625 L 3.0625 10.15625 C 3.089844 10.15625 3.097656 10.179688 3.109375 10.210938 C 3.140625 10.25 3.109375 10.308594 3.078125 10.308594 L 2.980469 10.359375 C 2.921875 10.378906 2.878906 10.4375 2.859375 10.507812 L 2.839844 10.609375 L 2.839844 10.632812 L 2.742188 11.1875 C 2.71875 11.269531 2.71875 11.359375 2.71875 11.453125 C 2.71875 11.53125 2.769531 11.601562 2.839844 11.628906 L 3.0625 11.726562 C 3.160156 11.789062 3.28125 11.859375 3.359375 11.929688 L 3.460938 12.007812 C 3.492188 12.050781 3.539062 12.089844 3.582031 12.109375 L 3.617188 12.148438 C 3.6875 12.210938 3.742188 12.289062 3.757812 12.378906 L 3.859375 12.828125 C 3.859375 12.953125 3.960938 13.050781 4.058594 13.078125 L 4.21875 13.128906 C 4.21875 13.128906 4.25 13.128906 4.269531 13.148438 L 4.472656 13.210938 C 4.632812 13.261719 4.773438 13.351562 4.890625 13.472656 C 5.011719 13.570312 5.128906 13.703125 5.230469 13.84375 L 5.269531 13.878906 C 5.347656 13.976562 5.46875 14.03125 5.59375 14 C 5.710938 13.96875 5.839844 13.960938 5.972656 13.960938 L 6.121094 13.960938 C 6.21875 13.960938 6.351562 13.992188 6.460938 14.058594 C 6.558594 14.117188 6.6875 14.160156 6.8125 14.207031 L 6.839844 14.207031 C 6.960938 14.257812 7.09375 14.242188 7.191406 14.171875 C 7.289062 14.089844 7.421875 14.046875 7.550781 14.046875 L 8.019531 14.082031 C 8.117188 14.082031 8.222656 14.058594 8.269531 13.976562 L 8.292969 13.976562 L 8.460938 13.820312 L 8.507812 13.773438 C 8.59375 13.667969 8.710938 13.632812 8.832031 13.621094 L 9.28125 13.621094 C 9.398438 13.621094 9.511719 13.519531 9.558594 13.421875 C 9.609375 13.320312 9.707031 13.242188 9.828125 13.21875 L 10.03125 13.179688 C 10.109375 13.179688 10.179688 13.109375 10.210938 13.023438 C 10.242188 12.917969 10.289062 12.839844 10.359375 12.777344 L 10.519531 12.617188 C 10.621094 12.519531 10.667969 12.421875 10.691406 12.300781 Z M 10.667969 12.308594 "/>
</g>
</svg>
